<svg width="18" height="22" viewBox="0 0 18 22" fill="none" xmlns="http://www.w3.org/2000/svg">
<path d="M8.78906 21.8678C7.19531 21.8678 5.64844 21.6632 4.14844 21.254C2.64844 20.8448 1.42969 20.2992 0.492188 19.6172L2.32031 15.3499C3.20156 15.954 4.22344 16.4411 5.38594 16.8113C6.54844 17.1816 7.69219 17.3667 8.81719 17.3667C10.9547 17.3667 12.0234 16.8113 12.0234 15.7007C12.0234 15.1161 11.7188 14.6826 11.1094 14.4C10.5 14.1175 9.52031 13.8204 8.17031 13.5086C6.68906 13.1773 5.45156 12.8217 4.45781 12.4418C3.46406 12.0618 2.61094 11.4529 1.89844 10.615C1.18594 9.77715 0.829687 8.64701 0.829687 7.22458C0.829687 5.97752 1.15781 4.85225 1.81406 3.84876C2.47031 2.84526 3.45 2.05124 4.75313 1.46668C6.05625 0.882123 7.65469 0.589844 9.54844 0.589844C10.8422 0.589844 12.1172 0.740855 13.3734 1.04288C14.6297 1.3449 15.7359 1.78819 16.6922 2.37275L14.9766 6.66925C13.1016 5.61705 11.2828 5.09094 9.52031 5.09094C8.41406 5.09094 7.60781 5.26144 7.10156 5.60243C6.59531 5.94342 6.34219 6.38672 6.34219 6.9323C6.34219 7.47789 6.64219 7.88708 7.24219 8.15988C7.84219 8.43267 8.80781 8.71521 10.1391 9.00749C11.6391 9.33874 12.8813 9.69434 13.8656 10.0743C14.85 10.4543 15.7031 11.0583 16.425 11.8864C17.1469 12.7146 17.5078 13.8398 17.5078 15.2623C17.5078 16.4898 17.1797 17.6005 16.5234 18.5942C15.8672 19.588 14.8828 20.382 13.5703 20.9763C12.2578 21.5706 10.6641 21.8678 8.78906 21.8678Z" fill="white"/>
</svg>
